<svg width="48" height="27" viewBox="0 0 48 27" fill="none" xmlns="http://www.w3.org/2000/svg">
<g id="Group">
<g id="Group_2">
<path id="Vector" d="M40.1156 19.1517C40.1156 17.6963 40.1156 16.2894 40.1156 14.8341C40.2611 13.1846 41.5224 11.8263 43.1719 11.6807C44.9668 11.4867 46.4222 12.7965 46.8588 14.2034C46.9073 14.3974 47.3925 16.0469 46.2282 17.3567C45.452 18.2299 44.2391 18.618 43.0263 18.327C43.0263 26.7196 43.0263 15.1736 43.0263 23.5663H5.041C5.041 21.8199 4.99248 20.1219 4.99248 18.3755C4.89546 18.3755 3.05198 18.8121 1.83917 17.5022C0.820403 16.435 0.820403 14.8826 1.35404 13.8153C1.93619 12.5054 3.39157 11.6322 4.89546 11.7778C6.30232 11.9233 7.51514 12.9421 7.95175 14.3004C7.95175 15.8528 7.95175 17.4052 7.95175 19.0061" stroke="black" stroke-miterlimit="10" stroke-linecap="round"/>
<path id="Vector_2" d="M12.9001 23.5663H7.70923V26.089H12.9001V23.5663Z" stroke="black" stroke-miterlimit="10" stroke-linecap="round"/>
<path id="Vector_3" d="M40.9404 23.5663H35.7495V26.089H40.9404V23.5663Z" stroke="black" stroke-miterlimit="10" stroke-linecap="round"/>
<path id="Vector_4" d="M4.99255 8.81856C4.99255 4.45243 7.95182 0.911011 11.6388 0.911011H36.5257C40.1642 0.911011 43.1719 4.45243 43.1719 8.81856" stroke="black" stroke-miterlimit="10" stroke-linecap="round"/>
<path id="Vector_5" d="M11.3477 19.1517H36.7682" stroke="black" stroke-miterlimit="10" stroke-linecap="round"/>
<path id="Vector_6" d="M24.0579 3.82172V16.2409" stroke="black" stroke-miterlimit="10" stroke-linecap="round"/>
</g>
</g>
</svg>
