<svg id="canne" data-name="canne" xmlns="http://www.w3.org/2000/svg" width="9.6cm" height="11cm" viewBox="0 0 271 312">
  <defs>
    <style>
      .cls-1, .cls-2 {
        fill: red;
      }

      .cls-1 {
        fill-rule: evenodd;
      }
    </style>
  </defs>
  <g>
    <path class="cls-1" d="M269.8,180.2c-.8.6-.5.9-.5,2.2V185h-1.7v2.7h-1v2.8h-2.1v5.8H263V191h-1.9l-.7,19.5c0-2.6.2-2.2-2.4-2.2l-.2,5.8h-2.4c0,2.3-.5,5-.5,7.4h-.7v-2.6h-1.5v2.6h-.9V227h-1.5v5.1h-2.6v-4.8c-.3-1.7-.2.1-.5-1.3s0-5.1,0-6.4H245v3.8h-2.1v-6H240l-.2-5.3c-.2-1.3-.7-.9-2.2-.9v2.1c-1.2-.3-.7-.5-.7-3.8h-1.7v-5.3H233v-7.9h-2.8v7.4h-1v-4H228v4.5c-1.1-.3-.7-.1-.7-3.3v-4.1h-1.2c0-4.2.3-3.6-2.2-3.6v11.7h-.7v-4.5H222v10.1h-1v-3.6h-1.2l-.4,1.6h-2.2v8.2h-1.7V228c-.3.6.4.3-.7.5v2.6h-1v-2.6a6.1,6.1,0,0,1-.2-2.7,6.2,6.2,0,0,0-.2-2.4c-1.2,0-1.4-.2-1.5,1a19.2,19.2,0,0,0,0,2.4v22.9h-2V235.4H209v6c-2.2,0-1.6-.4-1.6,5.8v7.7h-1v9.5h-1.3v-10c-.3-.7.4-.4-.8-.4s.4,8.7-.2,9.8-.1,6.9-.1,8.7h-2v9.2H201c-.7.9-.3,4.1-.3,5.3l-4.3-.2v-2.7c0-3.1,0-2.1-.6-2.4s-.4,0-.4,1.7v11.8c0,2.6-.4.9-.9,2s.8.8.9.8v13.2h-2.1c-.4-1.9,0-6.7-.1-8.4s.1-.6-.5-1-.5-.1-.8.6v9.1h57v-9.8h1.4v9.8h3.1V290.9c1.9,0,1.5-.1,1.5,4.3h1.2v4.3h1.2v-4.3h.9v-4.8c1-.3.8-.1.8-2.7h.9v-8.8h1v4.8h1.4V268.1h1v4.5h1.2v2.9h.9a7.8,7.8,0,0,1,.2-2.7c.7-2.2.3-15.1.3-17.7h.7v2.6h1.7V247.6c0-1.8.3-1.4,2.2-1.4V180.6C270.4,180.4,270.2,180.3,269.8,180.2Z" transform="translate(0.5 0.5)"/>
    <path class="cls-1" d="M77.5,302.1H76.3v-4.3H74.6v4.3h-.7v-7.6H72.7l-.2,3.1a2.2,2.2,0,0,0-1.5-.3V286.8h-.9v5.7h-.7v-4c-.7-.4-.5-.3-1.5-.3v-7.9H66.5v-5.8H65.3v4.1H62.9V265.4c-1.6.1-1.3.4-1.2,2.2v3.3H60.2v-8.1H58.8V264H57.6V250.1H55.7v3.6H54.2V240.2h-.9v2.7H50.4V226.5H48.2v7H46.8V220.3c.1-2.6.1-2.2-2.4-2.2v2.4H42V210H41l-.2-2.9c-.7-.3-.5-.2-1.4-.2v-5.3H37.9v-5.3H35v14.9H33.1v-7.5H31.9v5.1H30.2v4.5H29V210H27.8l-.2,4.8H25.2v8.6h-.7v-3.3H22.8v7.6H21.4v-1.4h-.8c-.4,1.4-.1,6.9-.1,8.9v.3H18.7v-.3c0-2.3.4-9.9-.2-11.3l-.2.7a4.9,4.9,0,0,0-.1,1.2v4.8c0,1.3.1,1.4-1,1.5,0-7.4.6-6.8-1.9-6.8v-5.2h-1v-5.6H13v2.9h-.8v-2.6H11v-7.9c-2.2,0-.1-.5-2.1-.5,0-1.6.1-3.5,0-5.1a13.6,13.6,0,0,1-.2-2.1c-.1-1.4.1-1.4-1.3-1.5v2.7H6.5l-.3-5.3H4.3c0,1.5.2.7-.5,1v-5.6c-1.4-.1-.9-.3-.9-3.8H1.4v1H.2v-3.9c0-.6.1-1.3.1-1.9s.1-1.2-.5-1.7-.2,3.1-.3,7.6v71.6H1.7v-6.5c2.8,0,1.9.1,1.9,8.2v10.1H5.3v-2.9c.9,0,.5.1,1.2-.2v-1.7H7.9v12.5c1.8-.1,1.2-.5,1.2-5.3h.7v8.1c0,3.2-.1,2.2.5,2.4,0,3.8-.5,4.5,1,4.6v5h.9l.5-5a63.2,63.2,0,0,0,.8,6.9v5.8c.1.9.1.9,1,1V306h1.7v5.5c1.7,0,1.2-.2,1.2-4.6v-5.7h2.4v10.3h.9v-4.6h.8v4.6H79.2v-4.8H77.5Z" transform="translate(0.5 0.5)"/>
    <path class="cls-1" d="M119.5,310.8v-4.6h-1.2v-4.6c.1-2.3-.7-1.6-3.1-1.6,0-1.1.2-6.9-.1-7.4s-1.6-1.4-1.6,1.4v3.8h-1.2V287.3h-1.4v5.5h-.5v-2.7h-.7v-1.5h-1.2V274.1h-.7v2.8h-1v-4.5h-1.9v5.5h-2.2V281h-.9v3.9h-1.2v-2.7H99.4v6.3H97.7v2.8h-1v2.4h-.9v5.6H94.6v-5.8c-3.4,0-1.3.5-2,5.5a55.6,55.6,0,0,0-.2,7.2H90.7a19.7,19.7,0,0,1-.2,4.3H89v1h31.7C120.5,310.5,120.7,310.8,119.5,310.8Z" transform="translate(0.5 0.5)"/>
    <path class="cls-1" d="M173.3,310.5v-4.3h-.7v-2.9c0-1.4.3-2.1-.8-2.4s-.5-.2-.4,2.7v3.1l-.5-11.8h-1.7V300h-1v-9.6h-2.1l-.5,2.1V288h-1.4v-3.4c-1.2-.3-.8-1.1-.8-5.3h-.9v-3.8h-1.7v1.4h-1.2v2.9h-1.4v-7.4h-1.5v13.4h-.9V276h-1.7l-.5,10.8h-2.4v22.5h-1.9v-10h-1.9v12.2h27.8C175.2,310,174.5,310,173.3,310.5Z" transform="translate(0.5 0.5)"/>
    <path class="cls-1" d="M187.2,302.8v8.7h1.5c0-1.1.4-8.8-.3-9.7S187.3,301.8,187.2,302.8Z" transform="translate(0.5 0.5)"/>
    <path class="cls-1" d="M269.3-.5V6c-1,0-.6-.1-1.2.2v8.2h-1.5v-6H265V22.5c-.1,0-.1-.2-.1-.1l-.4-.6c-.4-.3-.3-.2-1-.2V13.4h-2.4V24.5c-2.3,0-1.7.4-1.7,3.1s-.2,2.7-.2,4.5H258V42.2h-.7V39.6h-1v6.2h-2.1v8.9h-2V50.6H251V64.5h-1.2V61.4H247V73.9h-1.2V66.7h-1l-.2,5.5h-1.2V67.4c-1.6.1-1.3.4-1.2,2.2V79.9H240v3.8c-.9.1-.6,0-1.2.3v8.9h-1.2v2.6h-.7v5h-1.7v5.1H234c0-2.2.7-3.6-1.2-3.6v13.7a7.4,7.4,0,0,1-.1,2.1l-.4,1.2c-.2.5,0,.3-.2.5v-7.9c0-1.5-.4-.8-.5-2.4s.2-2-.1-2.6-1.7-.6-2,.2-.1,4.8-.1,5.5H228v13h-1.2V110.1h-1.2v5.6h-1.2v-5.6h-1v-3.3c-.5-.3-.5-.7-.5-1.4s.1-1.5.1-2.2h-1c0,2.2-.2,3.7-.2,5.7l-.5-4.5a2.2,2.2,0,0,0-1.5-.3c0-2.2.3-5.5.1-7.7s-.4-.9-1.7-.9-.5,1.5-.5,2.9,0,2.4,0,3.6H217V99.3h-.8c0-1.1.1-2.4.1-3.6s-.5-1.7-.5-3.3h-1.7l-.3,1.9h-1.2V89.5h-1.2V87.8h-.9V85.9H209v3.4h-.7v2.4c-2.4,0-1.7.6-1.7,4.5h-.9l-2.2.3v13.2h-.7v-3.2c-2.4,0-1.7.5-1.7,4.4v6.2h-.7v-1.7h-1.7v3.9H198v-6h-1.7v5.2h-.7v12h-1V126H193v4.5h-1.2V137H191v-5.3h-1.4v13.5h-1.2v-5.1H187v9.7c-.1,2.1-.8.5-.8,3v2h-.7c0-5.8.8-7.2-1.4-7.2v13.9h-.7v-8.2h-1.5c0,3.8-.3,2.5-.4,3.9a30.5,30.5,0,0,0-.1,4.3c-2.9,0-2.1.1-2.1,4.3v6.5l-.5-5h-1.9v4h-.7v2h-1l-.5,6.4c0-1.3.3-1.5-.9-1.6v-3.2H173v-9.8h-.9c0-4.2.8-5.3-1.5-5.3V167h-.9v-8.6h-1.2v-8.7h-1.7v2h-1l-.2,10V141.8c0-1.1.4-4-.4-4.5s-1.5,2.2-1.5,3.3v10.1h-1V137c0-2.6.6-2.6-1.9-2.6l-.5,8.1c0-2,.5-2.5-.5-2.8v-4.8h-1.2V131h-1.4v-6.5h-1.7v-6.4h-1.7v5.5h-.7v-2.9c-2.6,0-1.9.3-1.9,3.6v5.5h-.7v4.1h-.7v-1h-1.5v9.6c-1.1.2-.7,0-.7,2.2l-.2-3.1h-2v8.9h-.7c0,1.6.4,4.4-.5,5.7v-6.9h-1.9v8.1h-1.2v4.3h-.9c0,1.9.3,5-.2,6.8l-.8,1.6V167h-1.9v7.9h-1.7v4.6h-1.4l-.5,1.4v-4.3H132V179l-.5-.9c-.5-.8-.3.3-.5-1v-8.9h-1.6l-.5,4.1V167c-1,0-.6.1-1.2-.2v-4.3H126v4.8a1.5,1.5,0,0,1-.5-1.2V154.3h-1.7v1.9h-.9v-9.3h-2.4v5.2c-1-1.3-.5-6.6-.5-8.4h-1.2v-5.5h-1.2v2.7h-1v-8.5c-.1-1.4-.3-1.1-1.7-1.1v-6h-1.2c0,1.6.4,2.2-.5,2.8s-.5-2.6-.5-3.8v-4.6h-1.9v4.1H109v7.5h-1.5v6.9h-1.4v5.5h-1.7v3.6h-1v-8.1c-2.2,0-1.4,1.1-1.4,5.7v7.2h-1.2v9.2H99.6v-2.4H98.4v7.4c0,1.4.3,1.6-.7,1.9v-1.4H95.8c0,2.2.2,5.5,0,7.7s-.4.9-1.7.9v-1.7H92.6v8.2h-.7v-11c0-1.2.3-1.9-.5-2.2H90.1c-.8.3-.5.1-.6.9a56.1,56.1,0,0,0,0,5.8h-.7V162H86.9v-7.5H85v3.9h-.8V149H82.3v9.4h-.7v-6.3H79.9v-9.6c.1-1.8.1-1.6-1.7-1.6v3.3H76.8v-9.8H75.1l-.5,4.8c0-6.5-.1-3.6-.6-5.6a62,62,0,0,1-.1-6.2H72.2v4.8h-.7V119.7H69.1v2.4H67.9v-4.5H66.2v-3.4c-.6-.3-.2-.2-1.2-.2,0-2.1.3-3.5.3-5.8a15.4,15.4,0,0,0-2.4-.2V99.6c-2.1,0-1.7,0-1.7,2.1v4.1a9.4,9.4,0,0,1-1-2.3c-.6-1.7-.5-4.3-.4-6.3s.4-2.3-.5-2.9-.5,3.6-.5,4.8a1.5,1.5,0,0,1-.5-1.2c-.2-2.7,0-9.6,0-12.5H55.7l-.5,6.3H53.3v12.2h-1c0-8.4,1-7.9-2.6-7.9,0,2.3.2,11.7,0,13.7s-.2.9-1.2.9v-4.5h-1V99.8H45.8v16.6H44.6c0-3.9.8-5.1-1.4-5.1v2.9H42v5.3h-.7v-2.3a11.6,11.6,0,0,1-.4-4.2c0-.6.1-2.9,0-3.3s-1.5-.8-2.9-.8l-.2,12.3c0-2.5.2-17.6,0-19.7s-.5-1-1.9-1v4.4H34.1V94.3c-2.9,0-2.2.1-2.2,3.1H30.5v-12H28.8v3.1H27.6V76.3c-2.6,0-2.4-.4-2.4,2.2-.8-.4-.7-.4-1.4,0V68.4H22.1V71H20.2V62.4H18.7V58.8H17.3L17,54.7h-.9V48H14.4v3.8h-1l.3-8.6c0-1.7.1-1.7-1.5-1.7v2.4H10.6V34.5H8.9V25.2c0-1.7-.2-1.5-1.7-1.5V14.4h-1v3.1H4.6V8.4H2.9V19.9H1.7V11.5H.2V-.5H-.5V125.9h0c.2,1.8.5-.6.5,4.1v13.6H2.9l.5-2.6v10.1H5.5v10.1H7.2v-8.7H8.9c0,3.1-.3,2.6.5,2.9v6.7h1.2v7.7h1.6v-4.8h2.2V180h1.7v-7.2c.4.7-.1.9,1.4.9v4.1h1.2v4.3c1.1.2.7,0,.7,1.5h2v3.6c.6.3.2.2,1.2.2v2.4h.9c0-1.6.3-2.4.3-3.8H25v-6.3h.9l.5-3.1c0,4.5-.3,1.6.4,5.1v3.6h1.2V175.2c0-2.6-.3-2.6.5-2.7s.3.5.9,1.8h.7v-8.1H31v6h.7v-5.6h2.1V153.6H35v10.5c2.1,0,1.5.1,1.5-5.5v-6.9l.2,9.6h2.7v-8.7h.9v-2.4h1v8.4h1.4v-2.1h1.2v13.6c.2.7,1.2.7,1.6.3s.2-1.5.2-2.2.9.3,2,.3v11.7h2.4v-4.8h.7v9.4h1.4v11h1.9v-5h1.7v4.5h1.2v-3.6h1.5l.2,16.1a2.1,2.1,0,0,0,1.4.3v6.4h2.2c.3-.6.2-.4.2-1.4l.5,2.9h1.2c0,5.9.3,11,.3,16.8h1.6v-6.7h.1l.2.8h2.4v17.8H71v-5.3h1v12.7h2.2v-7.4h.9v13.9h2.2v-7.2H78v4.8h1.9v4.1h1.2v5h.7v4.1H84v10.6c0,1.6.7,1.2,2.4,1.2V269.5c.6.2.8.7,1.1,1.6a10.3,10.3,0,0,1,.1,2.5v16.5H90c0-1.1-.2-12.4.2-13.2s.3-.7,1.5-.7-.4,3.8.2,4.4a2.8,2.8,0,0,0,1.8.1c.6-.4.4-1.2.4-2.1-.1-3,0-6.1,0-9.1h2.1v-2.2h1V253.7h.7V242.1c1.3.1.9-.4.9,3.4v13.7h1.8V248.6H102l.2-13.1h2.1V218.2h2.3c.1.5,0,.6.1.9l.3.8h1.3v-7.2h1.5v17.4h1.8v6.8c1.4.6.5-.4,1.4,1.2s.5,2.6.5,6.2v9.4h2.2V238.3h1.2v6.2c.6.3.2.3,1.2.3v6.7h1.2v7.9h1.2v1.9h2.1v10.8h2.2l.5-2.6v7.7c1,0,.8.1,1.4-.3v3.6c.7.3.3.3,1.2.3v6.7h1.7c0,5.2.5,2.2.5,4.6h1.4v12.2c0,2.2.3,1.7,2.4,1.7v-2.7c1.4,0,1.2-.4,1.2-.4s.1-.1.1-.2h.1c0-.1,0-.2.1-.2v9.1h2.1V299.7c.1-.9-.1-.7.7-.9V306h2.2V293c2.2,0,1.7.3,1.7-5.3.9,0,.5.1,1.2-.2l.2,1.9H145l.4-6.9h1.5v-9.4c1,0,.8.1,1.4-.2l.2-18.2v-1.8a5.7,5.7,0,0,1-.1,1.4v.4c0,.6.2.3.8.4v3.1h.7v3.9c.9.2.4.3,1.1.4s.7.1.9-.3.1-9.7.1-11.4.5-.3.6-2.4-.4-4.7.3-5.5V228.5h2.8v11.9h.9c.9-.2.4-.1.7-.3H157v-6.3h.5V217h2.5c.1,1.2-.1,2.2,0,3.3s.5.5.5,2.6c.6.1.4.2.6.3s-.7,0,.6.5v2.4H163c0,.7-.2,2.2.2,2.8v-7.2c-.1-2.3.1-1.7.5-1.8s.4,0,.4,1.1v11.5h1v5.8h1.5v4.6H168v-7.4h1.7V245h1.3v11.8h1.5V252h.9v13.9h1.3c.8.1.9,0,1.2.5s.2,2.3.2,3h.9v2.9h1v7.4c1.4.2-.1.5,2.1.5v-4.6h1v4.4c.1,1.4-.2.6.5.9v4.8h1.2V288h1.4V274.8h1.5c0,5.8-.7,6.2,1.4,6.2v-8.6h1v-4.3h.9v-3.9h1.5v-7.4l.9,1.5v4.5H193a6.1,6.1,0,0,1,.2-2.7c1-1.6-.3-20,.3-23.9h1.1V249c.4-.6.2-2.1.2-3s.3-.3,1.2-.3V223.6c.3-.4-.6-.3.8-.3a13.6,13.6,0,0,1,.2-4.1c.7-.1,1.2-.2,1.5.2l.2,8.3c1.2-.1.9-.1.9-1.5l1.8-.2c.1-5.1-.2-4.2,1.3-4.3V208h1V215h1.9V203c1.3-.6,1.1,1.6,1.1-6.7h.8v6.7h2l.2-8.4,2.5-.2V180.6c1.5.1.9,1.3.9,5.6a48,48,0,0,0,.1,6.6c1.3,0,2.4.3,3.1-.3s-.2-.5-.3-1.2.1-.7.1-.7,0-.4.3-.8v-3.9l2-.2V172.5h1.9v-8.1h1.6v10.2h4.3a10.4,10.4,0,0,0-3.1-.1V164.4c0-1.6-.4-2.3.9-2.4v5.5h2.2v-8.4h.7v-6.2h2.7V162h1.9v-4.3h1.2v7.4h1.9v-2.4h1.7v4.8h1.9v5.3h1v-3.9c2.2,0,1.6-.3,1.6,6v8h2l.2-2.7a6.5,6.5,0,0,0,1.4,0c.9-.1.5-.2,1.2-.5,0,5-.4,4.4,2,4.4a18.4,18.4,0,0,0,.1,4.1c.9,2.7-.4,2.7.8,3.5s.7-.1.7-3.3c1,0,.8.1,1.5-.3v-5.2h.9v-1.7c.5-.2.5.2.5-1.7s.3-.3.5-1.9,0-3.6,0-4.8h1.7V179h2.4V161.3H259c0,8.9-.8,7.9,2.4,7.9V149.3h.9v2.6H264v8.4c1.4,0,1.2-.2,1.2-1.7v-3.1h2.4l.4-15.2c0-1.4,0-2.9.1-3.8v3.8c0,1.4,0,2.7.3,3s1.2-3.4,1.2-3.4v-13c.8,0,.9,0,1-.7V-.5Z" transform="translate(0.5 0.5)"/>
    <polygon class="cls-1" points="196.6 254.5 195.4 254.5 195.3 256.8 196.6 256.8 196.6 254.5"/>
    <path class="cls-1" d="M22.8,3.1h1.7V15.3h.9v3.4h1.2v9.4H29V19.7c1.7,0,1.5-.5,1.5,3.1V36.9h1.7V30.2h1.9V43.7H36V39.8h1.9V53h1.5V48.5h1.2v3.8H42V66.2h2.6V55.4h2v5.3h1.9V48.5h1.2v3.8h1.2V45.6h.9c.7-1.4.1-6.7.3-8.7h2.3V34.3h1.4V27.8c.9-.5,1.4-.3,2.5-.3,0,1.5-.3,4,.2,5.2h2.4V37h3.7v2h1.5c.2,2.1.4,15.1-.1,16.1v4.2h1.5v2.4c-.1,1.3-.3,1.5.9,1.6V51.9h1.6V64.5H73v3.6h.9v8.7h2.4v3.3h2.2c0,.9-.2,6.3.2,6.8a.6.6,0,0,0,.9.1c.4-.2.3.6.3-.9h1.7V96.7h1.7V92.9h1.4v11h1.5v-3.4h1.2v6.3c.6.3.2.2,1.2.2v2.4c2.7,0,2.1-.9,2.1,6.3h2.2v-7c0-4.9.5-2.9,1.2-5.8h1.4c0,1,0,.6.3,1.2h2.1V93.8h2.2V89.5h1.4v9.4c.1,1.4.9.9,2.4.9V83.5h1V90h2.4V81.3c2.6,0,2.1.7,2.1-4a31.7,31.7,0,0,1,.3-6.3h.9v8.2c3,0,2.4,1.1,2.4-6,0-2.2-.2-5.3.4-7.1a3.4,3.4,0,0,0,.1-1.1h1.2c0,1.5-.4,1.6.7,1.7v8.4h2.2V70.3h1.7v6.5h1.2v8.6h2.1c.1,1.2.1,1.2,1.2,1.2V96.7h2.4V91.2h.8v9.1c.2,1.1,1,.7,2.4.7l.4-2.9v11.1c.7.3.3.2,1.2.2v4.3h1.2v5.6h2.4v-6h2c0-4.9,0-2.2.5-3.5s.2-2.8.2-4V97.7l.5,3.3h2.1l.3-5h2.4V88.8h1.2V83H145V71h1.6V67.7h1.2V63.6h.8V74.4H151l.2-3.6h1.7v8.9h2.4V73.2h1.2c0,9.3-.9,8.4,2.4,8.4V78.5h.7v9.1h2.6l.3,11.5h2.4v-6h.7v6h2.2v5.3h1.6v6.7c2.8,0,2.4.3,2.4-2.4H173v1.7h1.7c0,2.5.3,4.2.3,6.5h1.6c0-4.4.5-.5.5-5.3,3.3.3,2.7,2,2.7-7.9h.7v8.6h1.9v-4.6h2.2v-1.9h1.2V99.3c3.3,0-.4-.9,2.6-.9V89h.7a20.9,20.9,0,0,0,.1,2.6,1.2,1.2,0,0,0,2,.2,51.7,51.7,0,0,0,.1-5.7h.9V80.6c.7-.2.3.2.5-.5a4.8,4.8,0,0,0,0-1.2l.5,2.2h1.7V71.7h1.4V69.8c.4.5.1.4.6.6s.7.1,1.1.1V66.2c1,0,.8.1,1.4-.2V60.7h2.2V56.4c1.5-.1,1-.6,1-4.6h.7v3.1h1.4V51.8h.7V42.2c0-1.5-.2-2.1.5-2.9v4.6c.7.3.3.2,1.2.2v1.5h2.4V42.7h1V39.6h.7V30h3.3V40.4l.7.2v4c.6.3.4-.5.5,1h1.6v7.2c0,2.7.3,4.5.3,7.2h2.4c0-3.3.2-5.9.2-9.4h.7v5.7c.2,1.2,0,.1.3.7s.1,4.7.1,6.6h2.4V60.7h.7v8.2c.7.3.5.2,1.5.2V72h1.4V60h2.2V52.3h1.9V45.6h1.9l.3-10.3h1.4V31.9h.7v6.7h1.2V25.7h2.4v4.5h.7v4.1h1V30.2h1.2l.2-11.7h2.7V2.1h.9V9.8a2.2,2.2,0,0,0,1.5.3v2.1h.7c0-3.1.2-1.5.4-2.7V-.5h-57V2.1c-1,.7-.4-.2-.8.8V7.2h-.8V2.4h-1.5V-.5h-1.5V12.9h-2.8v5.6h-4.1V7.9c-.9.5-.6,1-.6,2.4v2.9h-1.2V9.1h-2.5V2.1c-.8-.2-.6.9-.6-2.6H147.4V7.2h-.8V2.1h-1.9v9.2h-1.9V22.5c0,2.2.4,2.2-1.7,2.2v-5h-1.9v6h-1.4V37.2H137c0-2.8.8-3.1-1.9-3.1v6.2h-1.2l-.5,3.1h-1.2V34.1h-2.1l-.5,1.6V28.5h-1.7v7.2h-.7V27.1h-1V18.5h-1.4V14.4c-2,.1-.5,1.6-1.1,3.7l-.4,2c0,.8.1,1.6.1,2.4h-1V6.9h-1.7V-.5H89V6.7c0,.4.1.9.1,1.2a1.7,1.7,0,0,0-.1.7c-.1.5,0,.2-.2.5v7.5H87.1V4.3c-.7.8-.2,1-.4,2.2s-.6,0-.7,1.9v4.1c-.1,1.2.3.6-.5,1.1l-.2,12.5H83.1V15.3c-.4-.6-.2-4.2-.2-5.2h-.7V1.9H79.2V-.5H21.4V10.1h1.4ZM61.9,35.5h1l.2,1.2H61.9Z" transform="translate(0.5 0.5)"/>
    <rect class="cls-2" x="135.8" width="2.2" height="5.04"/>
    <path class="cls-1" d="M252,4.3c0-2.3.5.6.5-4.8H251V2.4c0,.8.5.1.5,1.9Z" transform="translate(0.5 0.5)"/>
    <rect class="cls-2" x="20.2" width="1" height="1.2"/>
    <rect class="cls-2" x="269.8" y="311.5" width="1.2" height="0.48"/>
    <path class="cls-1" d="M-.5,311h0c0,.1.2.2,0,.5H.2V311A1.2,1.2,0,0,1-.5,311Z" transform="translate(0.5 0.5)"/>
  </g>
</svg>
