<svg width="28" height="27" viewBox="0 0 28 27" fill="none" xmlns="http://www.w3.org/2000/svg">
<path id="Vector" d="M25.5697 0C25.0846 0 24.6461 0.185804 24.3067 0.482145H3.67587C3.33651 0.185809 2.89798 0 2.41287 0C-0.133412 0.0823311 -0.141845 3.77314 2.41291 3.85715C2.89798 3.85715 3.33652 3.67134 3.67587 3.375H4.34261V25.2306C4.31441 26.7719 6.28888 27.5957 7.36068 26.483C7.37459 26.4691 7.38424 26.4524 7.39764 26.4381C7.72084 26.782 8.17639 27 8.68453 27C9.16538 26.9988 9.64264 26.8051 9.97256 26.4396C11.0246 27.6011 13.0457 26.8182 13.0264 25.2319C13.0264 25.232 13.0264 3.375 13.0264 3.375H14.925C14.5473 8.71262 15.7979 13.9826 18.5702 18.5249C17.6154 19.0339 17.6307 20.5307 18.5924 21.0228C17.7212 22.737 17.4365 24.7058 17.783 26.6031C17.8244 26.8328 18.0242 27 18.2578 27H23.1576C23.4242 27 23.64 26.7844 23.64 26.5179V21.1254C24.2004 20.9258 24.6049 20.3956 24.6049 19.7678C24.6049 19.1401 24.2004 18.6099 23.64 18.4103V3.375H24.3067C25.4843 4.47637 27.538 3.54992 27.4995 1.92852C27.4995 0.864939 26.634 0 25.5697 0ZM1.448 1.92857C1.48152 0.657101 3.34439 0.657352 3.37774 1.9286C3.34421 3.20004 1.48134 3.19979 1.448 1.92857ZM12.0616 25.232C12.0436 26.2785 10.4818 26.2951 10.4543 25.2384C10.4577 25.2381 10.4534 9.16373 10.455 9.16072C10.4454 8.53109 9.49984 8.52298 9.48874 9.16074C9.48987 9.16243 9.48715 25.2361 9.48938 25.2384C9.46685 26.2876 7.89521 26.2863 7.8789 25.2305C7.8789 25.2306 7.8789 22.1786 7.8789 22.1786C7.86791 21.5419 6.92377 21.5474 6.91403 22.1786C6.91403 22.1786 6.91403 25.2306 6.91403 25.2306C6.90214 26.2818 5.32551 26.293 5.30749 25.2305C5.30749 25.2306 5.30749 3.375 5.30749 3.375H6.91403V19.7679C6.92439 20.3999 7.86941 20.4036 7.88031 19.7678C7.88031 19.7679 7.88031 3.375 7.88031 3.375H9.48875V6.74999C9.50025 7.3884 10.4455 7.38018 10.455 6.74998C10.455 6.74999 10.455 3.375 10.455 3.375H12.0616L12.0616 25.232ZM18.671 26.0357C18.4519 24.3783 18.7732 22.6763 19.585 21.2143C19.585 21.2143 22.6751 21.2143 22.6751 21.2143V26.0357L18.671 26.0357ZM23.1576 20.25H19.2981C18.6652 20.2393 18.6632 19.2968 19.2981 19.2857C19.2981 19.2857 23.1576 19.2857 23.1576 19.2857C23.7904 19.2964 23.7925 20.2389 23.1576 20.25ZM22.6751 18.3214H19.5717C18.5553 16.6931 17.7258 14.9578 17.1163 13.1525C16.0124 9.8844 15.6096 6.4463 15.9192 2.93523C15.9215 2.77708 15.8593 2.60067 15.7187 2.51065C15.6415 2.44439 15.5349 2.42126 15.4386 2.41071H4.27411C4.36327 2.10389 4.36276 1.75326 4.2741 1.44643C4.27411 1.44643 23.7085 1.44643 23.7085 1.44643C23.6682 1.60145 23.64 1.7611 23.64 1.92857C23.64 2.09604 23.6682 2.25569 23.7085 2.41071H17.8508C17.5841 2.41071 17.3683 2.62636 17.3683 2.89286C17.3683 3.15936 17.5841 3.375 17.8508 3.375H22.6751V18.3214ZM25.5697 2.89286C24.2975 2.85935 24.2978 0.997606 25.5698 0.964285C26.842 0.997794 26.8417 2.85953 25.5697 2.89286Z" fill="black"/>
</svg>
