<svg width="10" height="14" viewBox="0 0 10 14" fill="none" xmlns="http://www.w3.org/2000/svg">
<path id="Union" fill-rule="evenodd" clip-rule="evenodd" d="M9.4833 2.76667L8.66663 3.58334L6.99997 1.91667L7.81663 1.1C8.2833 0.633333 9.01663 0.633333 9.4833 1.1C9.94997 1.55 9.94997 2.3 9.4833 2.76667ZM6.16663 1.58333L5.3333 2.41667L5.8333 2.91667L1.33329 7.41667L0.833293 9.58334L0.99996 9.75001L3.16663 9.25001L7.66663 4.75L8.16663 5.25L8.99997 4.41667L6.16663 1.58333ZM5.49996 6.25001H3.16663L6.16663 3.25L7.3333 4.41667L5.49996 6.25001ZM0.916627 13.25C1.34163 13.25 1.66663 12.9152 1.66663 12.4773C1.66663 11.9621 0.916627 10.4167 0.916627 10.4167C0.916627 10.4167 0.166626 11.9621 0.166626 12.4773C0.166626 12.9152 0.491626 13.25 0.916627 13.25Z" fill="black"/>
</svg>
