<svg width="14" height="14" viewBox="0 0 14 14" fill="none" xmlns="http://www.w3.org/2000/svg">
<g id="Vector">
<path d="M12.0014 14C12.2023 12.9943 12.9943 12.2023 14 12.0014C12.9943 11.8006 12.2023 11.0085 12.0014 10.0029C11.8006 11.0085 11.0085 11.8006 10.0029 12.0014C11.0085 12.2023 11.8006 12.9943 12.0014 14Z" fill="black"/>
<path d="M0 1.99857C1.00569 1.79751 1.79771 1.00569 1.99857 0C2.19943 1.00569 2.99145 1.79771 3.99714 1.99857C2.99145 2.19963 2.19943 2.99145 1.99857 3.99714C1.79751 2.99145 1.00569 2.19943 0 1.99857Z" fill="black"/>
<path d="M5.00143 1.99857C6.00712 1.79751 6.79914 1.00569 7 0C7.20086 1.00569 7.99289 1.79771 8.99857 1.99857C7.99289 2.19963 7.20086 2.99145 7 3.99714C6.79894 2.99145 6.00712 2.19943 5.00143 1.99857Z" fill="black"/>
<path d="M10.0029 7C11.0085 6.79894 11.8006 6.00712 12.0014 5.00143C12.2023 6.00712 12.9943 6.79914 14 7C12.9943 7.20106 12.2023 7.99289 12.0014 8.99857C11.8006 7.99289 11.0085 7.20086 10.0029 7Z" fill="black"/>
<path d="M5.00143 12.0014C6.00712 11.8006 6.79914 11.0085 7 10.0029C7.20086 11.0085 7.99289 11.8006 8.99857 12.0014C7.99289 12.2023 7.20086 12.9943 7 14C6.79894 12.9943 6.00712 12.2023 5.00143 12.0014Z" fill="black"/>
<path d="M5.00143 7C6.00712 6.79894 6.79914 6.00712 7 5.00143C7.20086 6.00712 7.99289 6.79914 8.99857 7C7.99289 7.20106 7.20086 7.99289 7 8.99857C6.79894 7.99289 6.00712 7.20086 5.00143 7Z" fill="black"/>
<path d="M10.0029 1.99857C11.0085 1.79751 11.8006 1.00569 12.0014 0C12.2023 1.00569 12.9943 1.79771 14 1.99857C12.9943 2.19963 12.2023 2.99145 12.0014 3.99714C11.8006 2.99145 11.0085 2.19943 10.0029 1.99857Z" fill="black"/>
<path d="M0 7C1.00569 6.79894 1.79771 6.00712 1.99857 5.00143C2.19943 6.00712 2.99145 6.79914 3.99714 7C2.99145 7.20106 2.19943 7.99289 1.99857 8.99857C1.79751 7.99289 1.00569 7.20086 0 7Z" fill="black"/>
<path d="M0 12.0014C1.00569 11.8006 1.79771 11.0085 1.99857 10.0029C2.19943 11.0085 2.99145 11.8006 3.99714 12.0014C2.99145 12.2023 2.19943 12.9943 1.99857 14C1.79751 12.9943 1.00569 12.2023 0 12.0014Z" fill="black"/>
</g>
</svg>
