<svg width="28" height="31" viewBox="0 0 28 31" fill="none" xmlns="http://www.w3.org/2000/svg">
<g id="Group">
<path id="Vector" d="M21.573 11.2811L20.8712 11.9829L24.9719 16.0836L23.7792 17.2306L24.4676 17.9459L25.7462 16.7159C25.9169 16.5522 26.0147 16.3219 26.0147 16.0856C26.0147 15.8523 25.9234 15.6325 25.7576 15.4662L21.573 11.2811Z" fill="black"/>
<path id="Vector_2" d="M20.0839 9.79217L19.382 10.4941L20.3745 11.4866L21.0764 10.7847L20.0839 9.79217Z" fill="black"/>
<path id="Vector_3" d="M27.1622 14.0631L13.1101 0.0109863L0 13.1211L6.94863 20.0697L3.97065 23.0477L11.1496 30.2266C11.6409 30.7185 12.2941 30.989 12.99 30.989C14.0447 30.989 14.9549 30.3581 15.3629 29.4538L27.1215 18.1469C27.6799 17.6109 28 16.8594 28 16.0852C28 15.3223 27.7022 14.6036 27.1622 14.0631ZM13.1101 1.41461L14.6418 2.94629L13.6064 3.98163L12.4683 2.84355L11.7665 3.54536L12.9046 4.68344L12.1174 5.47062L10.9793 4.33254L10.2775 5.03435L11.4156 6.17243L10.6284 6.95962L9.49034 5.82153L8.78853 6.52334L9.92661 7.66143L9.13943 8.44861L8.00135 7.31052L7.29953 8.01233L8.43762 9.15042L7.65044 9.9376L6.51235 8.79951L5.81054 9.50132L6.94863 10.6394L6.16145 11.4266L5.02336 10.2885L4.32155 10.9903L5.45964 12.1284L4.67246 12.9156L3.53437 11.7775L2.83256 12.4793L3.97065 13.6174L2.9353 14.6527L1.40362 13.1211L13.1101 1.41461ZM7.65044 20.7715L9.43028 22.5513L8.6431 23.3385L7.50502 22.2004L6.8032 22.9023L7.94129 24.0403L7.15411 24.8275L5.37427 23.0477L7.65044 20.7715ZM12.99 29.9963C12.5596 29.9963 12.1556 29.829 11.8519 29.5248L7.85592 25.5293L10.1321 23.2532L14.1276 27.2486C14.4318 27.5529 14.5991 27.9574 14.5991 28.3867C14.5991 29.2741 13.8774 29.9963 12.99 29.9963ZM26.4341 17.4317L15.5466 27.9003C15.4508 27.3911 15.2046 26.922 14.8299 26.5468L3.63711 15.3546L15.3436 3.6481L26.4604 14.7649C26.8128 15.1178 27.0073 15.5868 27.0073 16.0856C27.0073 16.5909 26.7984 17.0813 26.4341 17.4317Z" fill="black"/>
<path id="Vector_4" d="M5.51942 14.7553L4.8175 15.4572L5.51942 16.1591L6.22133 15.4572L5.51942 14.7553Z" fill="black"/>
<path id="Vector_5" d="M8.32786 17.5622L7.62585 18.264L8.29222 18.9305L8.99423 18.2287L8.32786 17.5622Z" fill="black"/>
<path id="Vector_6" d="M6.92322 16.1594L6.22131 16.8613L6.92322 17.5632L7.62514 16.8613L6.92322 16.1594Z" fill="black"/>
<path id="Vector_7" d="M18.7149 21.7044L18.0485 22.3708L18.7504 23.0728L19.4168 22.4063L18.7149 21.7044Z" fill="black"/>
<path id="Vector_8" d="M17.3458 23.0724L16.6439 23.7744L17.3458 24.4763L18.0477 23.7744L17.3458 23.0724Z" fill="black"/>
<path id="Vector_9" d="M15.9424 24.4764L15.2405 25.1783L15.9424 25.8803L16.6443 25.1783L15.9424 24.4764Z" fill="black"/>
</g>
</svg>
