<svg width="20" height="24" viewBox="0 0 20 24" fill="none" xmlns="http://www.w3.org/2000/svg">
<g clip-path="url(#clip0_269_2201)">
<path d="M19.0229 2.15957C18.612 1.73785 18.0546 1.50042 17.4737 1.49957V0.749566C17.4737 0.481709 17.3342 0.233994 17.1083 0.0998514C16.8824 -0.0342915 16.6035 -0.0338629 16.3776 0.0998514C16.1516 0.233566 16.0122 0.48128 16.0122 0.749566V1.49957H13.0891V0.749566C13.0891 0.481709 12.9496 0.233994 12.7237 0.0998514C12.4978 -0.0342915 12.2189 -0.0338629 11.9929 0.0998514C11.767 0.233566 11.6276 0.48128 11.6276 0.749566V1.49957H8.70448V0.749566C8.70448 0.481709 8.565 0.233994 8.33909 0.0998514C8.11318 -0.0342915 7.83424 -0.0338629 7.60832 0.0998514C7.38241 0.233566 7.24294 0.48128 7.24294 0.749566V1.49957H4.31986V0.749566C4.31986 0.481709 4.18039 0.233994 3.95448 0.0998514C3.72857 -0.0342915 3.44962 -0.0338629 3.22371 0.0998514C2.9978 0.233566 2.85832 0.48128 2.85832 0.749566V1.49957C2.27705 1.50042 1.71958 1.73742 1.30909 2.15957C0.897774 2.58128 0.666851 3.15342 0.666016 3.74999V21.75C0.666851 22.3466 0.897774 22.9187 1.30909 23.3404C1.71999 23.7621 2.27747 23.9996 2.85832 24.0004H17.4737C18.055 23.9996 18.6125 23.7626 19.0229 23.3404C19.4338 22.9187 19.6652 22.3466 19.666 21.75V3.74999C19.6652 3.15342 19.4343 2.58128 19.0229 2.15999V2.15957ZM2.34177 3.21985C2.47874 3.07928 2.66457 3.00042 2.85832 2.99999H12.3583H16.7429H17.4737C17.6675 2.99999 17.8533 3.07928 17.9903 3.21985C18.1272 3.36042 18.2041 3.55114 18.2045 3.74999V4.52657H2.12755V3.74999C2.12755 3.55114 2.20481 3.36042 2.34177 3.21985ZM17.9898 22.2797C17.8529 22.4203 17.667 22.4991 17.4733 22.4996H2.85832C2.66457 22.4996 2.47874 22.4203 2.34177 22.2797C2.20481 22.1391 2.12797 21.9484 2.12755 21.7496V6.02657H18.2045V21.75C18.2045 21.9489 18.1272 22.1396 17.9903 22.2801L17.9898 22.2797Z" fill="#4B5563"/>
<path d="M6.51194 15C5.73649 15 4.9932 15.3163 4.44491 15.8786C3.89663 16.4409 3.58887 17.2041 3.58887 18C3.58887 18.7959 3.89704 19.5587 4.44491 20.1214C4.99278 20.6841 5.73649 21 6.51194 21C7.28698 20.9991 8.02986 20.6829 8.57772 20.1201C9.12559 19.5579 9.43419 18.7954 9.43502 18C9.43502 17.2041 9.12684 16.4413 8.57898 15.8786C8.03111 15.3159 7.28739 15 6.51194 15ZM7.54546 19.0607C7.27111 19.3419 6.89946 19.5 6.51194 19.5C6.12443 19.5 5.75278 19.3419 5.47843 19.0607C5.20449 18.7791 5.05041 18.3977 5.05041 18C5.05041 17.6023 5.20449 17.2209 5.47843 16.9393C5.75278 16.6581 6.12443 16.5 6.51194 16.5C6.89946 16.5 7.27111 16.6586 7.54504 16.9397C7.81898 17.2209 7.97306 17.6023 7.97348 18C7.97348 18.3977 7.81939 18.7791 7.54546 19.0607Z" fill="#475569"/>
<path d="M16.0123 15.75H10.8969C10.636 15.75 10.3946 15.8931 10.2639 16.125C10.1332 16.3569 10.1336 16.6431 10.2639 16.875C10.3942 17.1069 10.6355 17.25 10.8969 17.25H16.0123C16.2733 17.25 16.5147 17.1069 16.6454 16.875C16.7761 16.6431 16.7757 16.3569 16.6454 16.125C16.5151 15.8931 16.2737 15.75 16.0123 15.75Z" fill="#475569"/>
<path d="M14.5508 18.75H10.8969C10.636 18.75 10.3946 18.8931 10.2639 19.125C10.1332 19.3569 10.1336 19.6431 10.2639 19.875C10.3942 20.1069 10.6355 20.25 10.8969 20.25H14.5508C14.8118 20.25 15.0531 20.1069 15.1838 19.875C15.3145 19.6431 15.3141 19.3569 15.1838 19.125C15.0536 18.8931 14.8122 18.75 14.5508 18.75Z" fill="#475569"/>
<path d="M6.51194 7.5C5.73649 7.5 4.9932 7.81629 4.44491 8.37857C3.89663 8.94086 3.58887 9.70414 3.58887 10.5C3.58887 11.2959 3.89704 12.0587 4.44491 12.6214C4.99278 13.1841 5.73649 13.5 6.51194 13.5C7.28698 13.4991 8.02986 13.1829 8.57772 12.6201C9.12559 12.0579 9.43419 11.2954 9.43502 10.5C9.43502 9.70414 9.12684 8.94129 8.57898 8.37857C8.03111 7.81586 7.28739 7.5 6.51194 7.5ZM7.54546 11.5607C7.27111 11.8419 6.89946 12 6.51194 12C6.12443 12 5.75278 11.8419 5.47843 11.5607C5.20449 11.2791 5.05041 10.8977 5.05041 10.5C5.05041 10.1023 5.20449 9.72086 5.47843 9.43929C5.75278 9.15814 6.12443 9 6.51194 9C6.89946 9 7.27111 9.15857 7.54504 9.43971C7.81898 9.72086 7.97306 10.1023 7.97348 10.5C7.97348 10.8977 7.81939 11.2791 7.54546 11.5607Z" fill="#475569"/>
<path d="M16.0123 8.25H10.8969C10.636 8.25 10.3946 8.39314 10.2639 8.625C10.1332 8.85686 10.1336 9.14314 10.2639 9.375C10.3942 9.60686 10.6355 9.75 10.8969 9.75H16.0123C16.2733 9.75 16.5147 9.60686 16.6454 9.375C16.7761 9.14314 16.7757 8.85686 16.6454 8.625C16.5151 8.39314 16.2737 8.25 16.0123 8.25Z" fill="#475569"/>
<path d="M10.8969 12.75H14.5508C14.8118 12.75 15.0531 12.6069 15.1838 12.375C15.3145 12.1431 15.3141 11.8569 15.1838 11.625C15.0536 11.3931 14.8122 11.25 14.5508 11.25H10.8969C10.636 11.25 10.3946 11.3931 10.2639 11.625C10.1332 11.8569 10.1336 12.1431 10.2639 12.375C10.3942 12.6069 10.6355 12.75 10.8969 12.75Z" fill="#475569"/>
</g>
<defs>
<clipPath id="clip0_269_2201">
<rect width="19" height="24" fill="white" transform="translate(0.666016)"/>
</clipPath>
</defs>
</svg>
