<svg width="23" height="20" viewBox="0 0 23 20" fill="none" xmlns="http://www.w3.org/2000/svg">
<g clip-path="url(#clip0_269_1635)">
<path d="M6.75477 0C5.40382 0 4.25551 0.90301 3.88399 2.14047H0.810573C0.337739 2.14047 0 2.50836 0 2.97659C0 3.44482 0.371513 3.81271 0.844347 3.81271H3.91777C4.25551 5.05017 5.43759 5.95318 6.78855 5.95318C8.1395 5.95318 9.32159 5.05017 9.6931 3.81271H22.1557C22.6285 3.81271 23 3.44482 23 2.97659C23 2.50836 22.6285 2.14047 22.1557 2.14047H9.6931C9.28781 0.90301 8.1395 0 6.75477 0ZM6.78855 1.67224C7.4978 1.67224 8.10573 2.2408 8.10573 2.97659C8.10573 3.71237 7.4978 4.28094 6.78855 4.28094C6.0793 4.28094 5.47137 3.71237 5.47137 2.97659C5.47137 2.2408 6.0793 1.67224 6.78855 1.67224Z" fill="#4B5563"/>
<path d="M16.9207 6.68896C15.5698 6.68896 14.4214 7.59197 14.0499 8.82943H0.844347C0.337739 8.82943 0 9.19733 0 9.66555C0 10.1338 0.371513 10.5017 0.844347 10.5017H14.0499C14.3877 11.7391 15.5698 12.6421 16.9207 12.6421C18.2717 12.6421 19.4537 11.7391 19.8253 10.5017H22.1557C22.6285 10.5017 23 10.1338 23 9.66555C23 9.19733 22.6285 8.82943 22.1557 8.82943H19.8253C19.4537 7.59197 18.3054 6.68896 16.9207 6.68896ZM16.9545 8.36121C17.6637 8.36121 18.2717 8.92977 18.2717 9.66555C18.2717 10.4013 17.6637 10.9699 16.9545 10.9699C16.2452 10.9699 15.6373 10.4013 15.6373 9.66555C15.6373 8.92977 16.2115 8.36121 16.9545 8.36121Z" fill="#4B5563"/>
<path d="M10.8076 14.0468C9.45668 14.0468 8.30837 14.9498 7.93686 16.1873H0.844347C0.337739 16.1873 0 16.5552 0 17.0234C0 17.4916 0.371513 17.8595 0.844347 17.8595H7.97063C8.30837 19.097 9.49046 20 10.8414 20C12.1924 20 13.3744 19.097 13.746 17.8595H22.1557C22.6285 17.8595 23 17.4916 23 17.0234C23 16.5552 22.6285 16.1873 22.1557 16.1873H13.7122C13.3407 14.9498 12.1924 14.0468 10.8076 14.0468ZM10.8414 15.7191C11.5507 15.7191 12.1586 16.2876 12.1586 17.0234C12.1586 17.7592 11.5507 18.3278 10.8414 18.3278C10.1322 18.3278 9.52423 17.7592 9.52423 17.0234C9.558 16.2876 10.1322 15.7191 10.8414 15.7191Z" fill="#4B5563"/>
</g>
<defs>
<clipPath id="clip0_269_1635">
<rect width="23" height="20" fill="white"/>
</clipPath>
</defs>
</svg>
