<?xml version="1.0" encoding="UTF-8"?><svg id="Layer_2" xmlns="http://www.w3.org/2000/svg" viewBox="0 0 1709.4 2427.2"><defs><style>.cls-1{fill:#535353;}</style></defs><g id="Layer_1-2"><g><path class="cls-1" d="m1187.2,2082.16c-2.16,3.96-4.26,9.35-7.71,13.67-3.43,4.3-7.84,8.14-12.5,11.09-8.42,5.34-17.48,9.65-26.04,14.77-32.09,19.2-57.92,45.67-83.28,72.59-3.97,4.21-5.65,10.48-8.95,15.43-2.3,3.45-5.11,6.94-8.49,9.23-7.7,5.21-15.86,9.75-23.91,14.44-4.06,2.37-5.86,5.55-6.31,10.41-1.24,13.54-6.58,25.65-14.48,36.66-3.88,5.41-8.03,10.65-11.59,16.26-6.61,10.41-16.23,17.24-26.18,24.04-5.12,3.5-9.51-.16-14.33.36-.17,1.36-.67,2.46-.34,3.19,7.76,17.64-.14,34.71-2.38,51.84-.97,7.42-8.45,11.66-14.89,15.04-4.9,2.57-10.48,3.87-16.93,6.15-1.58,6.35-7.91,9.08-14.44,11.85-5.8,2.46-11.87,4.84-16.87,8.54-9.93,7.33-20.96,9.56-32.86,9.48-10.32-.07-20.65.08-30.97-.03-6.77-.07-16.41-7.29-17.3-13.86-.88-6.5-1.51-13.42-.26-19.77,4.57-23.28,11.34-45.88,24.7-65.91,2.75-4.12,5.65-8.21,8.94-11.9,17.49-19.63,35.2-39.07,52.66-58.73,2.83-3.19,5.27-6.92,7.08-10.78,6.97-14.87,17.53-25.6,33.5-30.52,14.71-4.53,26.16-13.34,36.6-24.76,31.23-34.19,62.57-68.23,88.8-106.56,4.13-6.04,7.92-12.31,11.85-18.49,7.63-11.98,6.18-23.29-2.55-34.06-.42-.52-.81-1.06-1.26-1.55-27.14-30.7-47.93-65.37-64.77-102.6-10.01-22.13-20.55-44.02-31.08-65.91-7.45-15.5-11.01-32.05-13.51-48.85-1.81-12.17-3.11-24.45-3.95-36.72-.4-5.89.85-11.89,1.23-17.85,1.46-23.06,7.08-45.32,13.13-67.48,1.03-3.79,2.81-7.48,4.79-10.9,13.63-23.65,27.32-47.26,41.17-70.77,5.19-8.82,7.73-18.33,8.63-28.37.33-3.64.35-7.32.51-10.98q1.21-27.42,11.8-52.82c1.38-3.28,4.13-5.95,5.82-9.13,1.38-2.6,2.11-5.55,3.19-8.49-15.99-3.69-23.78,6.38-25.22,16.97-1.56,11.54-2.32,23.18-3.71,34.75-1.11,9.24-2,18.6-4.24,27.59-1.41,5.63-4.76,10.93-7.93,15.94-6.14,9.68-10.9,19.76-11.66,31.39-.02.33,0,.69-.13.99-4.63,11.56-14.6,18.68-23.18,26.75-2.92,2.75-8.92,4.42-12.81,3.52-8.91-2.06-17.44-5.87-26-9.28-2.4-.96-4.21-3.3-6.55-4.53-15.25-8.03-20.53-22.14-21.85-37.81-.85-10.12-3.85-18.65-10.58-26.07-1.78-1.96-3.35-4.16-4.76-6.42-17.64-28.28-42.71-48.97-69.39-68-10.3-7.34-20.82-14.4-30.95-21.97-32.97-24.62-69.75-42.71-105.7-62.23-8.14-4.42-16.02-9.53-23.38-15.15-18.51-14.14-37.12-28.23-54.8-43.37-13.1-11.23-24.94-23.95-37.09-36.26-10.99-11.14-21.21-23.07-32.55-33.82-15.95-15.12-27.56-33.15-38.13-52.12-2.91-5.21-3.3-9.61-.45-14.83,1.85-3.38,2.69-7.31,4.36-12.06-4.12,0-7.05,0-9.99,0-11.32,0-22.7-.72-33.96.14-31.81,2.44-59.17-9.31-85.45-25.27-3.63-2.2-5.59-4.78-4.8-8.83,1.56-8.04-2.72-11.81-9.25-15.35-33.33-18.13-67.07-35.27-102.55-48.99-14.24-5.5-26.97-14.28-38.49-24.61-12.55-11.26-28.29-6.71-35,9-4.26,9.98-4.18,19.59-3,30.12,1.66,14.87,6,28.54,13.1,41.49,7.21,13.14,8.04,28.03,11.78,42.12,5.36,20.22,8.72,40.96,16.79,60.49,5.02,12.17,11.04,23.43,20.59,32.59,5.31,5.09,8.12,10.61,7.07,18.55-.81,6.08.84,12.48,1.37,18.48,9.9,4.13,18.96,8.26,28.27,11.71,16.63,6.16,26.75,19.12,35.71,33.32,1.54,2.44,1.94,5.61,2.8,8.47,1.61,5.37,3.15,10.75,4.75,16.12.57,1.91,1.77,3.78,1.78,5.68.07,18.91,2.58,38.14-4.03,56.42-3.49,9.64-8.72,18.66-13.43,27.82-.8,1.55-2.81,2.86-4.54,3.48-9.18,3.27-18.07,3.1-26.79-2.06-25.01-14.8-43.28-36.02-58.19-60.47-1.88-3.09-2.92-6.7-4.25-10.1-4.48-11.47-9.4-22.6-16.27-33.01-8.39-12.7-18.22-23.93-30.53-32.58-9.27-6.52-13.38-15.45-15.5-25.68-2.16-10.42-3.37-21.02-5.2-31.51-.91-5.22-2.28-10.37-3.46-15.54-2.58-11.32-5.16-22.64-7.77-33.95-5.22-22.68-10.92-45.25-15.56-68.05-6.24-30.67-14.34-60.79-23-90.86-5.1-17.73-8.76-36.3-6.47-55.21.4-3.27.75-6.62,1.8-9.71,5.72-16.76,12.69-33.12,23.2-47.33,6-8.12,14.62-14.33,22.24-21.21,12.46-11.25,27.93-10.72,43.28-10.88,26.83-.29,52.89,4.97,79.02,10.1,12.7,2.49,25.66,3.62,38.48,5.54,5.91.88,11.72,2.42,17.64,3.18,2.38.31,6.74-.14,7.04-1.16.7-2.41.14-5.73-1.12-8.01-1.14-2.08-3.65-3.82-5.95-4.8-20.44-8.75-35.69-24.3-50.74-39.71-9.46-9.69-16.88-21.38-25.28-32.12-5.73-7.34-11.39-14.75-17.43-21.83-6.04-7.08-14.47-10.57-23.09-13.12-6.95-2.06-14.2,3.49-16.67,12.29-1.26,4.46-1.76,9.13-2.56,13.72-1.87,10.77-3.77,21.54-5.55,32.33-1.9,11.47-8.67,19.92-16.84,27.51-4.15,3.85-8.45,7.54-12.63,11.36-5.29,4.82-10.94,8.57-18.59,8.36-2.07-.06-4.9.77-6.14,2.24-7.06,8.32-14.21,16.64-20.46,25.56-9.75,13.91-12.85,30.54-17.21,46.53-5.2,19.07-3.77,38.31.75,57.32,6.09,25.56,11.88,51.22,19.04,76.49,3.53,12.49.29,23.59-4.86,33.62-10.53,20.47-24.27,38.9-41.38,54.67-4.95,4.57-10.76,6.55-16.86,7.98-5.8,1.36-9.77-2.71-11.88-7.03-5.21-10.66-11.08-21.24-8.86-34.08,1.54-8.9.7-17.85-1.3-26.74-.68-3.04-.28-6.67.71-9.68,3.58-10.93,4.17-22.08,4.06-33.48-.17-17.98.34-35.96.48-53.94.07-9.8,1.97-18.98,6.57-27.84,4.43-8.54,8.65-17.4,11.36-26.58,2.89-9.8,4.02-20.13,5.72-30.27,2.43-14.49,5.5-28.86,12.59-41.82,6.77-12.37,11.31-25.38,15.05-38.93,4.68-16.96,10.72-33.54,15.83-50.39,1.42-4.69,2.46-9.79,2.25-14.64-.88-19.95,5.49-37.91,13.82-55.52,2.68-5.67,4.49-11.76,6.55-17.7,6.21-17.9,12.2-35.87,18.68-53.67,1.16-3.18,3.72-6.45,6.53-8.32,10.51-7,20.83-14.69,32.27-19.79,19.68-8.79,40.24-10.05,61.19-3.05,14.71,4.92,28.11,11.4,39.61,22.14,9.22,8.62,19.67,15.91,29.35,24.06,19.08,16.06,41.31,26.66,63.75,36.79,12.76,5.76,25.41,11.57,36.89,19.7,3.5,2.48,7.75,3.87,11.35,6.23,20.85,13.66,37.22,2.01,50.98-13.04,1.57-1.71,2.91-3.64,4.31-5.5,8.94-11.82,19.58-21.07,33.38-27.51,16.85-7.87,32.65-17.91,46.77-30.34,7.71-6.79,16.01-12.91,23.74-19.69,5.38-4.71,8.95-10.89,9.99-18,2.4-16.37,13.03-27.19,24.57-37.43,8.22-7.29,16.81-14.16,24.91-21.59,15.5-14.22,29.02-30.12,41.17-47.37,14.36-20.39,31.3-38.93,43.72-60.74,1.97-3.46,4.13-6.89,5.46-10.61,10.91-30.37,21.95-60.69,32.24-91.27,3.15-9.37,4.43-19.43,5.9-29.28,1.21-8.09-2.82-14.34-10.75-16.72-11.97-3.59-24.38-3.99-36.55-1.59-9.84,1.94-19.08.9-28.55-1.65-9.59-2.57-19.41-4.32-29.06-6.68-3.8-.93-7.45-2.49-11.14-3.84-2.78-1.01-5.47-2.93-8.28-3.09-17.04-.96-34.11-5.37-51.14-.13-5.35,1.65-11.11,2.89-15.73,5.82-19.9,12.6-41.71,12.19-63.78,10.2-6.89-.62-11.7-5.12-11.99-9.94-.37-6.24,3.73-11.72,10.26-13.95,12.27-4.19,24.53-8.39,36.73-12.76,3.42-1.23,6.71-2.91,9.9-4.69,3.37-1.88,4.65-5.31,2.87-8.47-.99-1.75-4.27-3.18-6.43-3.08-3.53.17-7.03,1.59-10.46,2.71-17.06,5.56-34.05,11.33-51.15,16.73-7.15,2.26-14.24,2.52-21.05-2.02-8.14-5.42-12.62-11.46-13.06-22.41-.77-18.9,1.05-36.08,13.99-50.98,4.09-4.71,6.44-10.89,10.12-16,7.27-10.1,12.81-21.01,16.45-32.86,2.68-8.73,8.92-11.67,17.35-11.74,8.66-.07,17.31-.34,25.97-.4,21.3-.17,40.26-7.59,58.31-18.24,10.86-6.41,22.01-12.32,32.99-18.53,8.37-4.73,16.85-9.29,24.95-14.45,20.74-13.19,41.25-26.74,64.07-36.3,2.2-.92,5.11-3.16,5.29-5.02.17-1.79-2.35-4.72-4.4-5.72-23.17-11.3-47.28-19.47-73.3-20.85-7.07-.37-13.89.15-20.39,3.52-2.9,1.5-6.27,2.65-9.5,2.87-6.74.44-12.72-1.16-14.61-10.25,1.15-2.24,2.45-5.34,6.75-6.18,10.07-1.98,20.02-4.59,30.14-6.25,7.13-1.18,14.45-1.25,21.69-1.76,2.65-.19,5.34,0,7.94-.41,4.54-.73,4.98-3.64,3.12-8.1h-21.86c-1.49-4.47-2.81-8.42-4.3-12.88,16.41-3.84,31.92-8.59,47.97-7.02,12.84,1.26,25.54,4.39,38.15,7.34,11.97,2.79,23.96,5.81,35.55,9.86,9.7,3.39,19.15,1.63,28.62.67,7-.71,9.78-8.5,6.27-15.64-1.01-2.06-2.46-4.02-4.09-5.64-6.34-6.29-5.32-13.51-1.73-20.19,5.82-10.81,12.51-21.15,19.35-32.55,12.08,11.06,23.98,21.17,34.96,32.2,10.79,10.84,20.8,22.46,30.81,34.04,2.71,3.14,5.39,4.43,9.38,4.21,15.04-.82,29.9.7,44.65,3.66,25.43,5.11,47.94,16.01,65.4,35.37,7.03,7.79,13.85,11.5,24.68,10.85,23.91-1.43,47.93-1.09,71.88-2,12.19-.46,23.77,2.05,35.44,4.82,5.13,1.22,8.16,3.96,9.13,9-2.6,6.46-7.39,9.78-13.9,11.7-13.71,4.03-27.14,9.07-40.92,12.83-11.15,3.04-19.11,10.08-28.14,18.86,8.95,2.36,16.79,4.29,24.56,6.5,14.66,4.17,27.31,12.03,38.38,22.27,6.83,6.32,13.11,13.26,19.32,20.21,3.27,3.65,6.89,6.26,11.74,6.78,20.64,2.22,37.28,12.49,53.43,24.77,10.75,8.17,20.53,16.63,27.44,28.38,4.69,7.97,10.27,15.41,15.71,23.45-2.86,3.1-5.28,5.72-7.91,8.58-11.48-5.47-22.6-11.02-29.63-21.58-9.03-13.56-20.89-17.2-37.04-17.18-14.91.02-30.12-4.68-44.64-9.14-12.93-3.97-25.1-10.43-37.57-15.86-4.27-1.86-8.3-4.44-12.71-5.71-2.64-.76-5.82.4-8.76.7-.25.81-.51,1.63-.76,2.44,3.94,3.36,7.51,7.33,11.88,9.97,19.96,12.03,36.19,28.14,51.09,45.73,2.91,3.43,6.12,4.4,10.31,4.67,16.94,1.07,33.86,2.52,50.79,3.64,7.11.47,13.44,2.81,19.97,5.59,19.09,8.12,34.76,20.65,48.92,35.43q4.84,5.05,2.81,13.5c-5.9.69-10.6-2.14-15.14-5.44-8.87-6.46-17.44-13.55-28.38-16.27-5.38-1.33-11.02-2.65-16.48-2.44-16.28.62-32.53,2.3-48.81,2.99-11.35.48-22.66-.32-32.73-6.75-.82-.52-2.34.05-4.56.17,4.1,7.54,8.14,13.95,15.17,17.44,26.51,13.16,52.97,26.45,79.84,38.86,8,3.69,17.27,4.65,26.48,6.99.76,3.02,1.55,6.15,2.65,10.48-10.33,2.83-19.4,7.9-30.71,5.7-10.84-2.1-21.4-4.36-31.25-9.65-4.01-2.15-8.75-4.55-13.02-4.32-25.13,1.37-46.64-8.92-68.04-19.89-5.59-2.87-11.15-6.12-19.17-3.35,1.85,3.29,3.31,6.43,5.3,9.2,1.33,1.85,3.3,3.3,5.17,4.67,22.47,16.41,38.75,38.14,52.93,61.65,1.37,2.27,3.13,4.48,3.84,6.96,3.51,12.3,10.68,21.54,20.87,29.37,7.29,5.61,13.18,13.15,19.2,20.25,2.24,2.65,3.8,6.35,4.45,9.8,2.75,14.7,13.98,21.77,25.18,28.97,1.38.89,2.94,1.5,4.4,2.28.27.15.44.48,1.03,1.15-1.99,3.22-4.06,6.57-6.71,10.86-4.02-1.06-8.38-1.53-12.09-3.33-10.73-5.21-21.76-9.93-30.42-18.71-16.71-16.94-35.62-31.05-56.8-41.95-14.96-7.7-27.23-19.04-40.45-29.12-2.79-2.13-5.69-4.1-8.54-6.15-.68.51-1.37,1.03-2.05,1.54,1.01,2.01,1.55,4.53,3.09,5.96,11.49,10.55,22.11,22.01,35.88,30.03,16.94,9.86,34.09,19.68,47.75,34.15,2.61,2.77,5.06,6.25,6.1,9.83,4.35,14.92,13.17,26.75,24.74,36.55,3.03,2.57,7.72,3.44,11.81,4.43,6.45,1.56,13,2.81,19.57,3.74,8.93,1.26,14.73,6.92,20.63,13.38-9.57,11.26-21.92,11.86-34.71,10.44-8.2-.91-16.4-2.11-24.45-3.89-10.15-2.24-20.15-5.83-26.05-14.93-5.4-8.34-12.32-13.39-21.78-15.89-17.04-4.5-33.94-9.5-50.94-14.12-4.84-1.31-9.94-2.53-13.44,3.21-.12,4.22,1.54,7.57,5.86,9.14,11.92,4.33,19.56,13.7,26.58,23.39,9.08,12.54,20.34,21.59,35.15,26.39,7.68,2.49,13.82,7.54,20.06,12.69,15.31,12.63,28.53,26.87,38.14,44.34,1.75,3.19,4.25,5.96,6.22,9.05,2.27,3.57,4.8,6.2,9.62,5.4,5.08-.85,7.09,2.31,7.99,7.33-2.72,1.62-5.54,3.3-8.35,4.99-4.15,2.49-8.04,2.37-12.08-.55-3.23-2.33-6.68-4.43-10.26-6.16-8.44-4.07-14.8-9.99-18.03-18.93-1.81-5.02-5.19-7-10.6-7.15-11.78-.34-22.94-3.18-32.98-9.8-6.65-4.39-14.41-4.11-22.08-5.08-.63,6.06,2.94,8.98,6.65,11.86,3.65,2.84,7.24,5.77,11.34,9.04-.92,3.29-1.77,6.33-2.63,9.41-9.54-.14-17.23-2.02-24.85-7.32-9.26-6.44-20.85-7.49-33.9-10.01,2.81,8.95,6.28,15.07,13.62,17.5,10.06,3.34,20.26,6.73,30.67,8.39,14.66,2.33,27.6,8,38.32,17.77,12.79,11.66,27.46,16.75,44.45,16.81,11.66.04,11.66.28,22.48,6.46-2.76,11.5-12.55,18.17-25,18.97-20.95,1.35-38.87-7.04-56.9-15.75-6.86-3.31-13.99-6.08-21.02-9.03-9.23-3.87-18.97-2.94-28.58-2.77-5.22.09-9.1,3.27-14.09,7.43,3.54,1.11,5.84,2.14,8.25,2.52,8.55,1.34,17.1,2.79,25.71,3.58,15.98,1.47,28.64,9.9,40.96,18.99,7.21,5.32,13.63,11.73,21.04,16.71,5.34,3.59,11.72,5.64,17.95,8.53-3.14,5.03-7.45,7.02-13.25,6.83-13.1-.42-25.86-1.41-36.4-10.78-1.89-1.68-5.37-2.24-8.1-2.19-31.24.63-62.47,1.47-93.71,2.29-.95.02-1.89.33-2.73.48-1.81,3.59.73,4.86,2.97,6.37,11.85,7.93,25.74,10.53,38.95,14.9,2.83.93,5.81,1.61,8.77,1.86,19.66,1.67,33.57,12.95,46.04,26.92,5.3,5.93,11.14,11.37,16.68,17.1,10.81,11.17,24.27,13.15,38.58,10.25,12.33-2.51,24.48-5.98,36.58-9.49,2.97-.86,5.79-3.19,8-5.49,3.89-4.05,8.26-4.99,13.52-4.05,1.26,5.67-1.4,9.3-5.1,12.38-22.21,18.54-46.78,30.18-76.72,26.54-16.56-2.02-32.51-5.04-47.57-13.37-12.42-6.87-26.24-11.34-39.69-16.15-6.19-2.22-12.95-3.09-19.53-3.94-11.96-1.55-23.61-3.83-34.07-10.29-3.85-2.38-7.46-2.68-10.16,2.25,2.39,4.77,7.04,6.45,11.65,8.14,24.38,8.97,48.53,18.61,70.79,32.08,15.41,9.32,28.6,21.46,38.83,37.2-2.07,2.97-3.9,5.62-6.35,9.14-6.54-3.19-12.94-5.83-18.85-9.3-7.45-4.38-14.4-9.6-21.76-14.15-11.87-7.35-24.76-11.21-38.85-10.26-1.76.12-3.48.87-7.43,1.91,3.51,1.83,4.93,2.83,6.51,3.35,2.84.93,5.78,1.55,8.66,2.34,23.76,6.52,40.5,21.85,53.15,42.34,3.67,5.95,7.3,11.94,11.3,17.66,4.13,5.91,8.79,11.02,17.31,7.45,1.52-.63,3.78.51,6.88,1.04-1.64,3.75-3.02,6.9-4.71,10.75-11.02-.39-21.49-.95-30.96-8.24-12.9-9.93-26.22-19.38-39.92-28.16-9.76-6.25-20.58-10.81-30.69-16.54-7.88-4.47-16.12-5.96-24.92-4.7-7.25,1.03-13.7-.64-20.05-4.18-12.45-6.94-25.1-13.49-38-20.37-4.12,1.59-5.96,5.06-6.27,9.87-.34,5.31-1.6,10.58-1.64,15.87-.04,5.9.28,11.91,1.42,17.68,5.58,28.4,17.97,53.65,32.96,78.46,22.29,36.92,47.32,71.6,75.09,104.43,2.78,3.28,5.93,6.3,9.22,9.08,24.44,20.61,48.52,41.68,73.61,61.47,17.47,13.78,36.28,25.89,54.64,38.53,30.51,21,58.45,45.14,86.53,69.19,29.37,25.15,51.81,56.15,75.21,86.41,12.68,16.4,23.87,33.7,32.12,52.72,3.67,8.46,6.21,17.42,9.56,27.03,14.08-.81,28.32-1.51,42.53-2.57,2.51-.19,5.05-1.59,7.34-2.86,13.11-7.24,26.16-14.58,39.18-21.98,2.3-1.31,4.52-2.86,6.49-4.62,19.59-17.54,39.62-34.67,54.68-56.58.38-.55.76-1.11,1.23-1.57,18.29-18,24.41-41.43,28.94-65.47,6.47-34.29,7.73-68.65,1.63-103.22-5.55-31.45-9.72-63.16-15.93-94.47-3.35-16.87-9.37-33.26-14.77-49.67-11.25-34.19-19.47-69.15-27.16-104.25-.49-2.25-.99-4.61-.83-6.87,1.61-23.56,2.05-47.31,5.54-70.6,2.02-13.51,7.91-26.8,13.95-39.27,10.89-22.46,23.4-44.11,39.45-63.45,2.75-3.31,5.49-6.72,8.69-9.56,15.93-14.16,31.51-28.78,48.23-41.96,10.88-8.58,23.49-14.96,35.32-22.33,4.08-2.54,6.82-.81,9.76,3.87-2.44,3.28-4.98,6.99-7.84,10.45-1.46,1.77-3.39,3.21-5.25,4.6-20.79,15.46-37.49,34.82-53.03,55.3-1.2,1.59-2.55,3.12-3.47,4.86-13.85,26.24-27.44,52.88-32.9,82.14-3.38,18.11-2.07,37.1-2.81,55.7-.04.96.32,1.96.6,2.92,1.96,6.69,5.91,7.88,10.65,2.99,3.24-3.34,6.18-6.98,9.13-10.59,22.82-27.91,47.29-54.16,75.9-76.34,2.8-2.17,4.99-5.31,6.97-8.33,8.39-12.85,15.71-26.25,20.63-40.87,1.84-5.47,4.63-10.26,10.49-13.16,3.13,5.32,3.89,10.73,3.87,16.86-.05,16.43-4.96,31.08-12.26,45.67-8.68,17.34-18.7,33.72-29.52,49.73-8.39,12.41-15.9,25.45-24.77,37.49-10.29,13.97-14.08,30.06-16.63,46.46-2.82,18.19-2.59,36.48,2.83,54.39,1.58,5.23,6.72,9.88,11.95,10.39,5.64.54,9.49-1.29,11.62-7.05,7.3-19.75,19.6-36.18,33.35-51.72.88-1,1.52-2.29,2.57-3.05,11.27-8.21,17.74-20.4,26.26-30.91,4.56-5.62,7.12-10.89,6.34-17.95-.17-1.53.3-3.13.51-5.02,8.58.88,13.89,5.6,17.31,12.36,1.21,2.39,1.59,6,.72,8.48-3.82,10.93-7.2,22.2-12.67,32.31-8.22,15.17-18.19,29.31-25.49,45.13-8.08,17.53-11.29,36.07-14.69,54.7-4.77,26.16.62,51.76,4.86,77.28,6.05,36.41,15.23,72.34,18.09,109.23,1.26,16.2.54,32.6-.08,48.87-.53,13.96-2.02,27.89-3.45,41.8-.47,4.56-1.37,9.32-3.26,13.46-8.27,18.16-15.61,36.94-25.85,53.96-13.53,22.49-28.53,44.69-50.79,59.6-17.9,11.98-37.11,22.17-58.39,27.44-6.76,1.67-6.78,1.62-10.27,7.87,6.12,11.33,11.84,22.99,18.53,34.07,10.32,17.09,10.64,35.51,7.65,54.16-3.06,19.13-4.92,38.25-4.9,57.62.01,12.15,2.07,23.87,6.15,35.21,2.13,5.93,1.72,10.96-2.97,15.51-5.93-.32-9.68-2.94-11.94-8.66-4.03-10.19-8.71-20.13-13.12-30.17-8.1-18.43-7.97-38.3-9.94-57.77-2.54-25.2-11.1-47.8-27.94-66.93-2.33-2.65-5.34-5.04-8.51-6.55-5.32-2.52-8.74.09-7.55,5.72.73,3.44,2.24,7.13,4.51,9.74,9.94,11.4,15.22,24.82,18.24,39.33.67,3.24,1.35,6.53,1.53,9.82,2,36.27-3.65,71.67-12.52,106.66-.88,3.47-2.64,6.82-4.49,9.93-18.87,31.72-35.85,64.62-58.49,93.97-2.72,3.53-3.6,7-2.64,11.11,1.43,6.14,2.96,12.25,4.45,18.35-3.21,8.79-9.61,11.1-18.82,8.65-6.96-12.83-8.7-27.09-8.4-41.87.34-16.74,6.44-31.93,12.85-46.86,7.74-18.03,16.77-35.5,24.91-53.36,2.17-4.77,3.77-9.99,4.52-15.17,2.01-13.82,3.37-27.73,5.08-41.59,1.78-14.39-3.78-27.48-7.31-40.91-.48-1.83-2.99-3.13-4.74-4.86-4.94,3.04-6.3,7.45-7.02,12.01-2.02,12.81-3.71,25.68-5.73,38.49-.77,4.89-1.39,9.99-3.27,14.49-6.31,15.11-5.96,30.42-2.58,45.97.28,1.3,1.32,2.79.95,3.8-1.19,3.19-2.11,7.22-4.55,9.02-3.94,2.92-6.6-.78-8.56-4.01-1.37-2.25-3.19-4.55-3.57-7.02-1.85-12.16-4.29-24.35-4.64-36.59-.65-22.94.44-45.86,1.98-68.83,1.16-17.3-.48-35.22-6.91-51.95-2.8-7.28-6.55-9.98-11.24-9.23-5.94.94-10.7,6.42-11.32,13.33-.84,9.28-1.87,18.56-2.23,27.87-.65,16.93-5.04,33.21-11.99,48.17-11.9,25.61-25.89,50.25-39.06,75.26-.92,1.74-2.24,3.32-3.56,4.8-19.54,21.83-37.93,44.86-58.98,65.13-24.15,23.24-48.72,46.54-78.33,63.11-10.46,5.85-15.99,14.88-19.6,25.31-4.13,11.93-8.14,24.06-10.45,36.43-4,21.47-2.8,42.31,12.01,60.4,6.09,7.44,11.51,15.46,16.94,23.42,9.27,13.59,12.9,28.99,14.3,45.16.68,7.83,2.24,15.58,3.51,24.13Zm408.4-896.96c-6.91,2.72-6.95,6.5-6.5,11.26,2.98,31.07,6.97,62.03,5,93.45-1.86,29.74-8.27,57.87-24.73,83-11.83,18.06-24.59,35.5-36.53,53.49-5.11,7.71-9.46,15.98-13.51,24.31-1.07,2.19-.75,6.46.76,8.11,1.47,1.62,5.56,2.05,7.99,1.31,3.63-1.1,7.45-3.06,10.08-5.75,11.17-11.37,22.52-22.65,32.71-34.87,25.49-30.57,38.92-66.66,42.43-105.73,2.92-32.45,1.5-65.15-7.63-96.91-3.01-10.45-6.58-20.74-10.08-31.68Zm-822.63,251.65c.54-.56,1.07-1.11,1.61-1.67-2.86-3.13-5.48-6.51-8.61-9.34-22.47-20.29-45.05-40.45-67.56-60.69-9.89-8.89-20.36-17.24-29.42-26.91-17.05-18.18-33.23-37.19-49.87-55.76-7.56-8.43-15.38-16.68-25.95-21.45-7.22-3.26-11.56-.57-12.13,7.27-.92,12.67,3.44,23.25,12.04,32.58,19.67,21.37,41.52,40.63,64.59,57.82,36.23,26.98,74.48,51.24,111.9,76.62,1.01.69,2.26,1.03,3.41,1.53Zm-80.15-775.3c9.84-1.4,16.14-3.34,19.41-6.8,7.54-7.96,15.2-15.87,22.03-24.42,16.88-21.12,29.63-44.87,43.12-68.2,8.71-15.06,16.7-30.28,21.9-46.81,2.77-8.82,4.57-17.98,6.23-27.09.39-2.16-1.02-6.24-2.55-6.78-2.31-.82-6.26-.24-8.08,1.37-4.67,4.15-9.41,8.67-12.59,13.96-11.45,19.09-22.5,38.43-33.28,57.9-17.37,31.38-30.13,65.24-50.95,94.8-2.18,3.1-3.12,7.07-5.24,12.06Zm306.26,512.99c-2.39-3.43-3.46-5.02-4.58-6.58-20.03-27.82-40.61-55.26-59.92-83.57-13.43-19.69-28.46-38.75-34.67-62.52-2.44-9.32-4.44-18.75-6.95-28.05-1.64-6.08-3.53-12.14-5.88-17.97-1.79-4.43-7.65-6.77-12.47-6.12-5.07.68-5.82,4.28-6.8,8.39-1.35,5.67-1.02,10.97.08,16.7,3.3,17.14,10.08,33.02,16.15,49.21,7.1,18.94,18.26,35.47,29.68,51.81,16.88,24.15,38.16,44.39,59.51,64.48,6.8,6.4,15.44,9.66,25.84,14.22Zm-285.98-388.25c2.33-6.13,1.1-9.42-1.9-12.74-11.46-12.68-26.12-18.44-42.66-18.33-14.58.09-29.47.54-43.65,3.55-15.49,3.28-30.37,9.55-45.41,14.8-5.29,1.85-7.94,5.69-5.98,11.81,7.54,2.21,14.65.23,21.69-1.57,34.83-8.87,69.55-10.05,104.27.69,4.25,1.31,8.95,1.21,13.64,1.78Zm-303.38,104.38c-1.16-1.77-2.13-4.92-3.94-5.52-1.89-.63-4.65,1.07-6.91,2.04-.79.34-1.26,1.5-1.79,2.34-5.97,9.56-11.72,19.12-14.5,30.32-5.69,22.9-12.31,45.47-28.08,64.05-1.28,1.51-1.13,5.02-.35,7.12.33.9,4,.9,6.1.71,1.55-.14,3.21-1,4.5-1.96,10.53-7.87,19.18-17.52,23.95-29.78,5.64-14.51,10.45-29.35,15.11-44.21,2.47-7.87,3.84-16.08,5.92-25.09Zm667.83,1210.24c-5.97-.06-9.8,3.72-13.4,7.49-26.13,27.42-52.16,54.93-78.2,82.44-1.59,1.68-3.34,3.37-4.4,5.37-1.43,2.69-2.18,5.68,2.52,8.39,3.5-2.53,7.81-4.96,11.28-8.27,19-18.1,38.19-36.03,56.5-54.81,8.75-8.97,15.85-19.58,23.45-29.64,2.28-3.02,5.02-6.39,2.25-10.97ZM731.75,242.17c16.12-.37,19.55-5.53,14.99-18.04-.91-2.5-1.9-4.97-2.66-7.52-2.8-9.34-9.3-14.27-18.7-15.49-4.26-.55-8.6-.41-12.9-.67-8.39-.5-13.66,4.49-17.77,10.71-4.45,6.72-3.27,11.9,3.65,15.83,8.37,4.74,17.03,8.98,25.73,13.1,2.91,1.38,6.3,1.73,7.66,2.08Zm250.4,1519.73c1.26-2.41,2.32-3.97,2.94-5.69,4.76-13.08,9.48-26.18,14.14-39.3,3.44-9.69,6.96-19.37,10.03-29.18,1.09-3.5.97-7.38,1.57-12.53-3.95,1.19-6.92,1.16-7.97,2.56-6.32,8.46-13.87,16.57-17.78,26.12-4.46,10.88-6.1,23.06-7.89,34.83-1.16,7.59-1.39,15.7,4.97,23.18Zm15.25-420.91c-1.43-4.31-2.59-8.73-4.37-12.89-1.75-4.09-5.17-5.6-9.73-5.25-4.54.35-7.86,2.21-8.82,6.63-3.51,16.17-6.85,32.37-10.03,48.61-.75,3.81,1.24,6.42,5.31,6.93,3.82.48,5.41-1.97,6.17-5.12,2.32-9.68,7.25-17.72,14.68-24.34,4.2-3.74,6.04-8.61,6.79-14.57Zm-60.56-1099.3c0-4.95.29-9.52-.08-14.02-.37-4.47-4.3-6.12-7.81-3.63-13.62,9.63-18.27,25.08-12.4,42.6,2.43-.56,5.11-.74,7.41-1.78,14.79-6.67,29.51-13.47,44.2-20.36,3.17-1.49,5.1-3.95,4-7.7-12.31-3.72-22.3,6.72-35.32,4.9Zm-366.28-7.19c.36.56.72,1.13,1.08,1.69,3.94,0,8.01.64,11.8-.13,9.07-1.83,17.95-4.58,27.01-6.48,10.67-2.24,19.72-7.67,28.27-13.94,4.6-3.38,9.04-6.42,14.76-7.7,2.1-.47,5.16-2.99,5.26-4.72.21-3.47-2.43-6.47-6.19-6.42-3.53.05-7.32.74-10.52,2.2-20.48,9.34-40.86,18.89-61.17,28.6-3.69,1.76-6.88,4.58-10.3,6.91ZM130.39,816.46c-5.65-.1-8.34,3.3-10.93,6.82-13.31,18.06-15.02,39.2-15.83,60.52-.06,1.7,1.82,3.47,2.89,5.37,15.3-12.43,29.72-56.99,23.88-72.7Zm.51,322.7c-11.99,25.19-2.07,72.99,18.13,98.29.57-3.67,1.74-6.58,1.31-9.24-2.47-15.37-3.64-30.99-9.46-45.71-3.53-8.93-6.37-18.05-6.24-27.99.06-4.55-2.14-9.13-3.74-15.34ZM464.96,305.47c.74,3.65.09,8.31,5.64,9.04,10.95,1.44,26.87-9.67,29.73-20.67,1.65-6.37.04-9.9-6.81-14.89-5-3.65-10.04-4.19-14.56-.22-7.96,6.99-12.84,15.9-14.01,26.74Zm389.26,55.74c-5.39-3.35-9.41,0-13.27,2.12-13.66,7.48-27.14,15.29-40.7,22.97-2.73,1.55-5.14,3.23-3.58,7.06,17.15,4.14,32.32-1.77,45.96-10.87,6.72-4.48,13.21-11.31,11.6-21.28Zm-71.33,515.67c-.26-2.37-.47-6.36-1.16-10.26-1.04-5.93-3.33-7.85-9.21-8.37-7.49-.66-20.58,8.66-21.8,15.97-.4,2.41.08,5.38,1.2,7.56,3.86,7.55,10.16,10.52,18.76,9.96,10.36-.68,12.74-2.83,12.21-14.87Zm533.15,699.25c-.49-8.03-1.44-15.41-7.8-21.13-4.28-3.86-8.15-4.93-12.58-2.79-4.55,2.19-7.44,6.93-6.24,12.24.92,4.05,2.67,8.19,5.07,11.58,3.57,5.03,6.51,9.97,6.07,16.4-.11,1.63-.13,3.6.66,4.88,1.26,2.04,3.23,3.63,4.91,5.42,1.74-1.75,4.44-3.22,5.04-5.29,2.03-6.98,3.31-14.18,4.88-21.29Zm-274.51,368.96c.22-1.02.77-1.99.56-2.76-2.63-9.59-3.8-19.3-4.43-29.25-.48-7.45-2.97-14.89-5.41-22.04-1.69-4.95-4.96-9.23-11.13-9.34-7.53,18.15,2.69,47.77,20.42,63.39ZM760.34,313.15c-.51-.6-1.01-1.21-1.52-1.81-6.12,3.75-12.33,7.37-18.35,11.28-6.1,3.97-12.26,7.91-17.92,12.46-5.35,4.29-12.96,6.28-15.99,14.41,14.2,2.59,26.06-1.6,37.39-8.07,1.34-.76,2.4-2.31,3.17-3.72,4.48-8.15,8.83-16.36,13.22-24.55Zm-433.57,802.01c-.15-6.99-4.52-9.5-9.02-11.62-11.66-5.49-23.26-11.17-35.2-15.99-7.05-2.84-14.69-4.19-22.07-6.21,9.63,8.15,19.56,15.19,29.64,22.02,4.92,3.34,9.93,6.64,15.22,9.32,6.5,3.29,13.39,5.39,21.43,2.49Zm461.82-756.8c4.01.52,6.18,1.32,8.13.96,9.06-1.67,16.24-6.71,22.99-12.78,3.76-3.38,5.54-7.43,5.95-12.04.21-2.28-.54-5.74-2.11-6.79-1.65-1.1-5.28-.78-7.21.35-11.62,6.83-20.02,16.75-27.77,30.31Zm50.42,2014.15c-.68,6.22,2.12,8.67,8.25,7.2,9.44-2.27,20.47-18.3,19.1-27.77-.61-4.24-3.52-4.33-6.71-3.51-7.85,2.04-19.75,16-20.64,24.07ZM175.91,748.67c-4.57.61-9.26.78-13.69,1.94-4.38,1.15-7.59,6.53-6.4,9.9,1.45,4.11,5.26,5.27,8.86,4.69,5.8-.93,11.66-2.31,17.08-4.52,2.13-.87,4.61-4.69,4.28-6.74-.32-2.03-3.87-3.73-6.24-5.17-.96-.58-2.57-.1-3.88-.11Zm796.52-168.41c2.88-.89,7.14-1.73,10.91-3.57,1.99-.97,4.66-4.05,4.3-5.52-.58-2.39-3.01-5.08-5.34-6.14-5.46-2.47-16.18,1.65-19.37,6.82-1.97,3.19-1.29,5.81,2.22,7.18,1.79.7,3.87.69,7.27,1.24ZM247.69,858.59c-1.7,4.17.91,6.87,3.4,9.45,7.48,7.73,15.63,14.47,26.82,17.88-2.8-10.71-20.01-25.9-30.22-27.32Zm696.51-214.23c12.85,6.81,23.2,1.17,22.98-11.95-11.67-1.95-17.64,1.02-22.98,11.95Zm24.55-201.57c2.07,5.2,4.01,6.47,9.04,4.96,6.89-2.07,11.17-7.69,10.41-13.67-.61-4.79-2.41-5.7-9.51-5.25-3.35,4.71-6.41,9-9.94,13.96Zm18.8,25.7c-7.45-2.1-13.79-1.23-16.96,3.13-1.35,1.85-2.29,5.21-1.5,7.06.76,1.78,3.97,3.41,6.17,3.51,7.7.32,12.5-5.33,12.28-13.7Zm-.05,64.96c-9.56-3.99-18.95-.95-25.73,8.33,9.74,6.26,21.36,2.49,25.73-8.33Zm-26.29,75.37c4.16-.81,7.43-1.34,10.64-2.1,3.32-.78,5.14-2.99,4.99-6.44-.16-3.8-3.11-4.85-6.12-5.41-4.84-.9-9.51.02-12.68,3.85-1.44,1.74-2.16,4.92-1.67,7.1.32,1.41,3.43,2.19,4.84,2.99Zm-28.98,1639.15c-8.11-.84-15.93,2.7-18.19,8.19-.71,1.72-.29,4.55.74,6.14.7,1.09,3.54,1.61,5.11,1.19,7.47-2,11.42-7.06,12.34-15.52Zm52.23-1745.52c-5.69-1.33-11.16-.67-15.5,3.31-1.57,1.44-2.15,4.62-2.04,6.95.05,1.08,2.75,2.71,4.4,2.93,7.06.93,12.88-4.95,13.14-13.19ZM111.63,1018.99c9.51-3.71,14.87-16.32,9.69-24.85-4.77,8.1-12.09,14.25-9.69,24.85ZM779.72,163.43c-2.69-1.01-5.45-3.12-7.59-2.62-3.95.93-7.95,2.87-11.12,5.4-2.23,1.78.04,5.9,3.18,6.53,5.68,1.13,11.08-1.82,15.53-9.31Zm120.12-49.87c8.5,3.94,15.73,4.14,23.7,1.45-7.34-7.93-14.26-8.57-23.7-1.45Zm-366.63,165.3c-8.29-2.07-10.04,2.99-11.86,8.06,2.58,5.24,6.26,6.64,11.86,4.12v-12.18Zm409.52,403.02c2.8-.38,4.16-.35,5.37-.77,2.69-.93,6.24-1.45,5.59-5.46-.57-3.51-3.5-4.42-6.67-4.38-1.29.02-2.9-.06-3.81.64-2.13,1.64-3.91,3.73-5.83,5.63,2.04,1.65,4.07,3.3,5.35,4.34Zm29.39-300.21c5.39,1.73,10.42.88,14.68-2.44,1.32-1.03,1.63-4.01,1.47-6.02-.07-.93-2.34-2.25-3.71-2.39-3.87-.39-10.4,5.39-12.43,10.85Zm167.38,1694.89c3.67-4.09,7.21-8.03,11.13-12.4-7.51-2.98-11.47-.03-14.51,4.8-1.86,2.94-1.71,5.57,3.39,7.6Zm-197.48-1373.61c-2.25.23-3.24.23-4.19.44-3.21.7-7.04,1.28-6.06,5.82.89,4.14,4.47,4.13,7.89,3.52.96-.17,2.25-.23,2.75-.85,1.47-1.8,3.33-3.78,3.58-5.87.12-1-3.05-2.39-3.97-3.06Zm-682.09,739.51c-1.47,8.02.18,12.29,4.94,12.48,3.39.13,4.6-2.18,4.88-5.09.5-5.13-1.82-6.83-9.82-7.39ZM984.01,401.22c-10.66-1.72-11.07-1.56-14.57,5.39,8.51,3.47,9.89,3.01,14.57-5.39Zm-19.92-78.83c4.93,4.83,8.03,2.47,10.36-.09,1.13-1.24.72-3.89,1.01-5.91-1.81-.18-4.14-1.15-5.33-.37-2.24,1.47-3.83,3.94-6.04,6.37Zm-46.61-173.5c8.55,5.98,12.94,5.53,16.71-1.34q-8.44-2.48-16.71,1.34Zm66.55,191.6c-3.98-.97-7.15.51-8.84,4.05-1.22,2.56-1.92,5.79,1.92,7.31q8.06-3.65,6.92-11.37Zm-71.13,426.17c6.66,6.09,7.58,6.1,13.23.58q-5.74-5.52-13.23-.58Zm23.84-27.68c-3.2-.61-6-1.8-8.56-1.4-1.52.24-3.65,3-3.64,4.61.02,1.34,2.61,3.43,4.35,3.79,3.65.76,6.42-.96,7.85-7Zm-359.33-411.55c-3.07-2.34-4.77-4.61-6.81-4.97-3.43-.61-4.26,2.3-4.16,5.16.11,3.23,2.07,5.04,5.13,4.32,1.72-.41,3.09-2.3,5.84-4.51ZM32.67,1195.08c1.46,4.27,3.84,6.71,8.06,4.52,1.23-.63,2.24-4.72,1.46-5.66-3.15-3.83-6.24-1.56-9.52,1.14Z"/><path class="cls-1" d="m453.38,1835.37c27.92,1.33,55.86,2.52,83.76,4.13,4.87.28,9.69,2.2,14.43,3.68,15.66,4.9,31.69,7.36,48.06,7.75,2.3.05,4.81.11,6.89-.69,18.6-7.16,36.62-4.72,54.07,3.51,37.48,17.69,77.35,26.25,118.15,31.03,20.81,2.44,41.73,4.19,62.65,5.36,11.24.63,22.62-.28,33.88-1.15,8.24-.64,10.72-3.87,11.3-12.25.44-6.49-.92-12.15-5.24-17.53-35.82-44.68-63.19-94.66-88.74-145.52-28.49-56.72-48.95-116.46-61.19-178.87-.7-3.59-.69-7.34-1.62-10.85-4.8-18.2,13.8-31,29.11-26.86,8.87,2.4,18.16,5.59,25.5,10.86,21.06,15.12,43.05,29.27,60.9,48.37,17.18,18.38,31.82,38.48,37.75,63.6.99,4.19,1.67,8.48,2.09,12.77.62,6.33,3.24,10.81,8.76,14.53,11.31,7.62,22.08,16.04,33.01,24.22,9.2,6.88,12.15,16.59,9.97,27.23-5.73,27.93-7.42,56.16-5.99,84.45,1.36,26.99,7.26,53.34,15.74,79.05,8.69,26.34,20.99,51.06,34.14,75.36,4.12,7.61,5.55,15.61,6.25,23.89.21,2.5-.48,5.31-1.51,7.65-4.7,10.65-9.81,21.12-14.48,31.78-1.79,4.09-4.73,5.72-8.79,7.07-14.14,4.7-28.37,1.98-42.58,1.13-1.55-.09-3.21-.92-4.53-1.83-24.16-16.78-51.97-25.11-79.46-34.01-47.69-15.44-96.88-23.54-146.62-28.66-1.66-.17-3.55-1.04-4.92-.51-10.9,4.24-21.43.48-32.19-.74-9.54-1.08-19.28-.52-28.93-.5-6.62.01-12.17-.9-15.69-7.89-3.09-6.15-7.38-7.26-14.33-4.97-19.03,6.27-38.42,10.87-58.45,12.13-19.26,1.21-38.72,2.84-57.01-5.37-9.97-4.47-19.57-9.84-29.11-15.18-8.09-4.53-15.9-9.56-23.75-14.5-1.91-1.2-3.89-2.66-5.16-4.47-8.24-11.7-16.47-23.41-24.29-35.38-1.9-2.91-2.78-6.74-3.26-10.26-.8-5.85,1.77-9.42,7.04-11.63,17.41-7.3,35.49-10.85,54.4-9.91Zm244.36,50.58c1.87,8.32,1.91,8.22,7.08,10.23,36.03,14,73.98,18.73,111.99,23.04,3.45.39,8.97,2.08,9.64-3.85.67-5.86-5.12-5.55-8.56-6.11-15.09-2.46-30.23-4.78-45.43-6.4-21.22-2.27-42.28-4.88-62.15-13.39-3.51-1.5-7.4-2.1-12.58-3.52Zm-214.66-19.97c-7.55-1.82-13.85.42-19.99,2.55-5.34,1.85-5.89,5.56-2.05,9.86,3.57,4,11.18,6.09,15.47,3.53,5.58-3.33,7.92-8.51,6.58-15.94Zm426.46,44.08c9.82,1.77,12.82-.28,14.74-10.08-10.29-1.99-14.75,1.06-14.74,10.08Z"/><path class="cls-1" d="m703.12,47.06c-1.51-8.19-.4-14.79,6.57-19.77,1.73-1.23,3.06-4.6,2.79-6.76-.87-6.81,2.51-11.3,6.78-15.66,6.61-.04,11.21,3.03,15.06,8.08,5.02,6.58,10.46,12.84,15.72,19.24,10.04,12.21,10.82,14.62,10.11,32.82-13.73.03-27.72,4.16-39.98-6.97-4.82-4.37-11.04-7.19-17.05-10.98Z"/></g></g></svg>